PathFileType	4	(X/Y/Z)	HSS_squat5.trc
DataRate	CameraRate	NumFrames	NumMarkers	Units	OrigDataRate	OrigDataStartFrame	OrigNumFrames
120.0	120.0	4	44	mm	120.0	736	980
Frame#	Time		R.Shoulder		Offset		L.Shoulder		R.Elbow		R.Wrist.Radial		R.Wrist		R.Hand		L.Elbow		L.Wrist.Radial		L.Wrist		L.Hand		R.Hip		V.Sacral		L.PSIS		L.Hip		R.Thigh.Upper		R.Thigh.Front		R.Thigh.Rear		X.Shell.Lower.Thigh.Right		R.Knee.Lateral		R.Shank.Upper		R.Shank.Front		R.Shank.Rear		X.Shell.Lower.Shank.Right		R.Ankle.Lateral		R.Heel		R.Toe		L.Thigh.Upper		L.Thigh.Front		L.Thigh.Rear		X.Shell.Lower.Thigh.Left		L.Knee.Lateral		L.Shank.Upper		L.Shank.Front		L.Shank.Rear		X.Shell.Lower.Shank.Left		L.Ankle.Lateral		L.Heel		L.Toe		R.Troc		L.Troc		R.PSIS		L.ASIS		R.ASIS
			X1	Y1	Z1	X2	Y2	Z2	X3	Y3	Z3	X4	Y4	Z4	X5	Y5	Z5	X6	Y6	Z6	X7	Y7	Z7	X8	Y8	Z8	X9	Y9	Z9	X10	Y10	Z10	X11	Y11	Z11	X12	Y12	Z12	X13	Y13	Z13	X14	Y14	Z14	X15	Y15	Z15	X16	Y16	Z16	X17	Y17	Z17	X18	Y18	Z18	X19	Y19	Z19	X20	Y20	Z20	X21	Y21	Z21	X22	Y22	Z22	X23	Y23	Z23	X24	Y24	Z24	X25	Y25	Z25	X26	Y26	Z26	X27	Y27	Z27	X28	Y28	Z28	X29	Y29	Z29	X30	Y30	Z30	X31	Y31	Z31	X32	Y32	Z32	X33	Y33	Z33	X34	Y34	Z34	X35	Y35	Z35	X36	Y36	Z36	X37	Y37	Z37	X38	Y38	Z38	X39	Y39	Z39	X40	Y40	Z40	X41	Y41	Z41	X42	Y42	Z42	X43	Y43	Z43	X44	Y44	Z44

736	6.12500	116.78043	994.70728	-213.24818	-167.56757	952.33527	-83.84470	-191.24429	1007.96893	-233.58633	289.13446	832.72357	-465.13104	72.61974	905.98914	-596.08246	112.62389	937.56934	-650.29883	28.08522	949.93188	-675.99713	-353.55737	875.45093	-509.68527	-108.87543	898.01074	-618.66071	-143.00870	946.65076	-659.53168	-54.34116	936.38953	-669.36664	95.19992	631.92151	26.65918	-55.42932	650.61987	162.95258	-94.02607	660.81329	152.63342	-203.80959	633.45245	27.87868	181.76675	551.49139	-107.57775	173.31119	575.83221	-153.96780	203.99857	524.62354	-136.88132	193.79033	543.15961	-178.31728	206.20541	449.44910	-264.49460	253.64645	331.53003	-237.37137	231.33594	280.16025	-246.04710	238.50755	311.34332	-193.88998	230.24982	264.87952	-199.16579	185.75948	71.64787	-91.78253	134.59181	34.56223	-44.52987	204.00613	34.33147	-235.49867	-250.82614	549.19189	-130.87697	-233.87000	558.69452	-185.43634	-270.04681	514.34735	-158.68291	-262.01263	533.05951	-198.56201	-245.36496	434.55536	-291.08099	-286.25226	279.53055	-213.40158	-268.66663	245.85394	-226.94406	-275.36118	258.15234	-167.61885	-277.02332	220.29408	-175.26500	-236.56450	72.33671	-108.09324	-189.58926	37.52319	-44.72001	-242.19170	33.03457	-241.67336	129.80399	596.49524	56.37054	-245.66525	590.32178	56.41600	-13.37465	659.43890	154.34734	-160.76593	593.22852	-14.18824	59.17575	593.79156	-11.79139
737	6.13333	116.73623	1000.21014	-212.84573	-167.57341	957.88910	-83.18510	-191.38187	1013.45081	-233.22758	289.08661	837.91058	-464.59641	73.02294	911.02039	-595.22784	112.62385	942.58978	-650.13922	27.98425	954.82098	-675.51831	-353.63147	880.65271	-509.13504	-109.82510	902.77655	-618.10309	-143.06453	951.57996	-659.07336	-54.27455	941.34406	-668.80017	95.17815	636.68158	26.45997	-55.43510	656.03345	162.25891	-94.17516	666.18707	152.02863	-203.68500	638.49811	27.35605	182.09106	553.66821	-107.91924	173.61185	577.68494	-154.61610	204.14305	526.54791	-136.79918	194.13824	544.80725	-178.53746	206.25752	449.94324	-263.67303	253.81706	331.79410	-236.78879	231.53902	280.52734	-245.51141	238.58897	311.52026	-193.38860	230.36899	265.06750	-198.72507	185.87122	71.62094	-91.77943	134.68211	34.55530	-44.55410	204.09850	34.26613	-235.49719	-250.93311	551.59131	-131.58940	-233.86794	560.59546	-186.29097	-270.04138	516.36334	-159.04576	-261.95642	534.65216	-199.14633	-245.26144	435.15213	-290.53961	-286.27563	279.69006	-213.09525	-268.67874	246.00894	-226.74519	-275.36469	258.23126	-167.41095	-277.05408	220.37642	-175.03712	-236.70222	72.46535	-108.13372	-189.73839	37.49295	-44.63280	-242.45804	33.27494	-241.74582	129.95587	600.89221	55.94868	-245.83563	595.11639	55.79123	-13.45815	664.72607	153.85150	-160.65773	598.26868	-14.78096	59.53294	597.76788	-12.50667
738	6.14167	116.82006	1005.63623	-212.76068	-167.50273	963.49951	-82.74887	-191.47987	1019.05737	-232.79762	289.02469	843.16199	-464.01114	72.86353	915.99054	-595.36316	112.56734	947.64966	-649.69092	27.99082	959.81427	-674.98639	-353.71231	885.87836	-508.67480	-109.65390	907.96515	-617.68939	-143.17096	956.63422	-658.51013	-54.37225	946.29303	-668.22650	95.03241	641.46216	26.05864	-55.49029	661.52777	161.76242	-94.30708	671.56390	151.61520	-203.57779	643.55896	26.81616	182.32120	555.97034	-108.36934	174.10165	579.56799	-155.24965	204.25882	528.59387	-136.80139	194.56345	546.36066	-178.82756	206.27914	450.57663	-263.10443	253.96567	332.06445	-236.18405	231.65535	280.87170	-245.08139	238.68292	311.77106	-192.86476	230.52591	265.32956	-198.21196	185.97279	71.59576	-91.75690	134.76326	34.52930	-44.52811	204.20711	34.20583	-235.53893	-250.97304	554.05402	-132.19679	-234.07483	562.42761	-186.99652	-270.08441	518.55933	-159.22198	-261.96094	536.34326	-199.51918	-245.05289	435.55463	-289.99005	-286.33652	279.92374	-212.64911	-268.68848	246.19803	-226.53696	-275.37451	258.35474	-167.11154	-277.10175	220.48587	-174.81250	-236.84885	72.43723	-108.12152	-189.85858	37.48748	-44.61871	-242.44427	33.27606	-241.75362	130.20021	605.33813	55.35952	-245.95581	599.97614	55.11660	-13.46848	670.09125	153.41145	-160.35263	602.63330	-14.80742	59.38769	601.90887	-12.68878
739	6.15000	116.90035	1011.43427	-212.38451	-167.55627	969.14697	-82.33194	-191.61378	1024.76843	-232.30486	289.02386	848.51483	-463.50787	73.62158	921.39099	-593.58453	112.51309	952.64838	-649.34247	27.97405	964.93726	-674.68201	-353.81009	891.21674	-508.04294	-108.40512	913.64655	-616.73718	-143.16315	961.72186	-658.09564	-54.50451	951.40656	-667.86310	94.93766	646.37671	25.91570	-55.54679	666.97626	161.42043	-94.34544	677.13544	151.05408	-203.51439	648.70984	26.25883	182.11549	558.92224	-108.91383	174.39937	581.54272	-155.83871	204.39232	530.64691	-136.98877	194.76578	548.17444	-179.04121	206.27156	451.12662	-262.47781	254.04716	332.41769	-235.49805	231.78938	281.18256	-244.54651	238.83420	312.03629	-192.05290	230.72263	265.61380	-197.82065	186.07471	71.57285	-91.75842	134.82796	34.53465	-44.52706	204.33563	34.12759	-235.57143	-251.02557	556.57117	-132.80893	-234.46140	564.03564	-187.64088	-270.13818	520.80231	-159.49347	-262.06863	538.09497	-199.98026	-244.86626	436.17435	-289.39801	-286.35724	280.10223	-212.26282	-268.71844	246.45531	-226.20406	-275.52881	258.34305	-166.64279	-277.15088	220.61183	-174.50996	-236.99179	72.43803	-108.10532	-190.07671	37.48230	-44.51970	-242.46136	33.30859	-241.73630	130.38274	609.95154	54.93577	-246.15660	604.89142	54.39722	-13.44935	675.55933	153.02499	-158.34380	606.41962	-14.51752	59.37745	606.22198	-12.68962
